<svg xmlns="http://www.w3.org/2000/svg" xmlns:xlink="http://www.w3.org/1999/xlink" version="1.1" width="256" height="256" viewBox="0 0 256 256" xml:space="preserve">
<g style="stroke: none; stroke-width: 0; stroke-dasharray: none; stroke-linecap: butt; stroke-linejoin: miter; stroke-miterlimit: 10; fill: none; fill-rule: nonzero; opacity: 1;" transform="translate(1.4065934065934016 1.4065934065934016) scale(2.81 2.81)">
	<path d="M 14.71 68.843 c -1.889 0 -3.426 1.537 -3.426 3.426 s 1.537 3.426 3.426 3.426 s 3.426 -1.537 3.426 -3.426 S 16.599 68.843 14.71 68.843 z M 14.71 73.694 c -0.786 0 -1.426 -0.64 -1.426 -1.426 s 0.64 -1.426 1.426 -1.426 c 0.787 0 1.426 0.64 1.426 1.426 S 15.497 73.694 14.71 73.694 z" style="stroke: none; stroke-width: 1; stroke-dasharray: none; stroke-linecap: butt; stroke-linejoin: miter; stroke-miterlimit: 10; fill: rgb(0,0,0); fill-rule: nonzero; opacity: 1;" transform=" matrix(1 0 0 1 0 0) " stroke-linecap="round"/>
	<path d="M 32.905 68.843 c -1.889 0 -3.426 1.537 -3.426 3.426 s 1.537 3.426 3.426 3.426 s 3.426 -1.537 3.426 -3.426 S 34.794 68.843 32.905 68.843 z M 32.905 73.694 c -0.786 0 -1.426 -0.64 -1.426 -1.426 s 0.64 -1.426 1.426 -1.426 c 0.787 0 1.426 0.64 1.426 1.426 S 33.691 73.694 32.905 73.694 z" style="stroke: none; stroke-width: 1; stroke-dasharray: none; stroke-linecap: butt; stroke-linejoin: miter; stroke-miterlimit: 10; fill: rgb(0,0,0); fill-rule: nonzero; opacity: 1;" transform=" matrix(1 0 0 1 0 0) " stroke-linecap="round"/>
	<path d="M 65.656 68.843 c -1.89 0 -3.427 1.537 -3.427 3.426 s 1.537 3.426 3.427 3.426 c 1.889 0 3.426 -1.537 3.426 -3.426 S 67.545 68.843 65.656 68.843 z M 65.656 73.694 c -0.787 0 -1.427 -0.64 -1.427 -1.426 s 0.64 -1.426 1.427 -1.426 c 0.786 0 1.426 0.64 1.426 1.426 S 66.442 73.694 65.656 73.694 z" style="stroke: none; stroke-width: 1; stroke-dasharray: none; stroke-linecap: butt; stroke-linejoin: miter; stroke-miterlimit: 10; fill: rgb(0,0,0); fill-rule: nonzero; opacity: 1;" transform=" matrix(1 0 0 1 0 0) " stroke-linecap="round"/>
	<path d="M 90 38.305 V 34.48 c 0 -0.552 -0.447 -1 -1 -1 h -2.824 V 19.716 c 0.555 -0.593 0.993 -1.292 1.253 -2.087 c 0.47 -1.431 0.353 -2.959 -0.327 -4.302 c -0.001 0 -0.001 0 -0.001 0 c -1.404 -2.772 -4.803 -3.886 -7.577 -2.481 l -5.578 2.826 c -0.492 0.25 -0.689 0.851 -0.439 1.344 l 0.327 0.646 l -17.59 8.911 l -0.327 -0.646 c -0.119 -0.237 -0.328 -0.416 -0.58 -0.499 c -0.253 -0.082 -0.526 -0.062 -0.764 0.058 L 21.548 40.215 l -0.778 -1.57 c -0.168 -0.341 -0.516 -0.556 -0.896 -0.556 h -6.931 c -0.552 0 -1 0.448 -1 1 v 15.293 H 6.181 c -0.552 0 -1 0.447 -1 1 v 5.188 H 1.867 C 0.837 60.57 0 61.408 0 62.438 v 6.943 c 0 2.144 1.744 3.888 3.888 3.888 h 3.401 c 0.491 3.661 3.628 6.495 7.421 6.495 s 6.929 -2.835 7.421 -6.495 h 3.354 c 0.491 3.661 3.627 6.495 7.42 6.495 c 3.793 0 6.929 -2.835 7.421 -6.495 h 13.063 h 4.846 c 0.491 3.661 3.628 6.495 7.421 6.495 c 3.793 0 6.929 -2.835 7.42 -6.495 h 1.405 c 1.863 0 3.379 -1.516 3.379 -3.379 V 56.657 c 0 -0.012 -0.005 -0.024 -0.006 -0.036 c -0.003 -0.068 -0.016 -0.134 -0.032 -0.2 c -0.007 -0.03 -0.01 -0.06 -0.02 -0.09 c -0.032 -0.093 -0.076 -0.183 -0.136 -0.265 l -7.02 -9.59 c -0.645 -0.882 -1.682 -1.408 -2.775 -1.408 h -8.915 h -4.7 c -1.03 0 -1.868 0.837 -1.868 1.867 V 60.57 H 37.18 v -5.188 c 0 -0.553 -0.448 -1 -1 -1 h -7.616 l -2.011 -4.062 l 33.116 -16.776 c 0.492 -0.25 0.689 -0.851 0.439 -1.344 l -0.327 -0.646 l 17.59 -8.911 l 0.327 0.646 c 0.119 0.237 0.328 0.416 0.58 0.499 c 0.102 0.033 0.207 0.05 0.312 0.05 c 0.155 0 0.311 -0.036 0.452 -0.108 l 5.135 -2.602 V 33.48 h -2.825 c -0.553 0 -1 0.448 -1 1 v 3.825 c 0 2.317 1.644 4.255 3.825 4.717 v 3.919 c 0 0.553 0.447 1 1 1 c 1.337 0 2.425 1.088 2.425 2.425 s -1.088 2.425 -2.425 2.425 c -0.871 0 -1.68 -0.471 -2.11 -1.229 c -0.271 -0.479 -0.881 -0.647 -1.363 -0.375 c -0.48 0.272 -0.648 0.883 -0.375 1.363 c 0.785 1.382 2.26 2.24 3.849 2.24 c 2.439 0 4.425 -1.985 4.425 -4.425 c 0 -2.096 -1.465 -3.856 -3.425 -4.311 v -3.033 C 88.357 42.56 90 40.622 90 38.305 z M 14.71 77.764 c -3.03 0 -5.496 -2.465 -5.496 -5.495 s 2.465 -5.495 5.496 -5.495 s 5.496 2.465 5.496 5.495 S 17.74 77.764 14.71 77.764 z M 32.905 77.764 c -3.03 0 -5.495 -2.465 -5.495 -5.495 s 2.465 -5.495 5.495 -5.495 c 3.03 0 5.496 2.465 5.496 5.495 S 35.935 77.764 32.905 77.764 z M 65.656 77.764 c -3.03 0 -5.496 -2.465 -5.496 -5.495 s 2.466 -5.495 5.496 -5.495 s 5.495 2.465 5.495 5.495 S 68.687 77.764 65.656 77.764 z M 67.872 47.068 c 0.14 0 0.276 0.027 0.407 0.066 c 0.191 0.057 0.371 0.146 0.523 0.275 c 0.086 0.072 0.163 0.155 0.23 0.247 l 0.001 0.001 l 5.855 8 H 59.957 v -8.589 H 67.872 z M 54.389 47.068 h 3.568 v 9.589 c 0 0.553 0.447 1 1 1 H 75.86 V 69.89 c 0 0.761 -0.618 1.379 -1.379 1.379 h -1.396 c -0.013 -0.1 -0.036 -0.196 -0.053 -0.294 c -0.017 -0.098 -0.032 -0.196 -0.053 -0.293 c -0.031 -0.145 -0.071 -0.286 -0.11 -0.427 c -0.024 -0.087 -0.045 -0.174 -0.072 -0.26 c -0.051 -0.159 -0.111 -0.314 -0.172 -0.468 c -0.025 -0.064 -0.046 -0.13 -0.073 -0.192 c -0.092 -0.216 -0.193 -0.426 -0.305 -0.631 c -0.012 -0.022 -0.026 -0.042 -0.038 -0.063 c -0.101 -0.182 -0.208 -0.36 -0.323 -0.532 c -0.042 -0.063 -0.09 -0.122 -0.134 -0.184 c -0.091 -0.127 -0.181 -0.253 -0.28 -0.374 c -0.056 -0.069 -0.116 -0.134 -0.175 -0.201 c -0.093 -0.107 -0.187 -0.213 -0.286 -0.315 c -0.066 -0.068 -0.136 -0.132 -0.205 -0.198 c -0.099 -0.094 -0.198 -0.186 -0.302 -0.275 c -0.074 -0.063 -0.151 -0.123 -0.228 -0.184 c -0.105 -0.083 -0.212 -0.163 -0.321 -0.24 c -0.081 -0.057 -0.164 -0.112 -0.247 -0.166 c -0.112 -0.072 -0.226 -0.141 -0.341 -0.208 c -0.087 -0.05 -0.174 -0.098 -0.263 -0.145 c -0.119 -0.062 -0.24 -0.119 -0.362 -0.175 c -0.091 -0.041 -0.182 -0.083 -0.275 -0.121 c -0.127 -0.051 -0.256 -0.097 -0.386 -0.141 c -0.093 -0.032 -0.186 -0.066 -0.281 -0.094 c -0.137 -0.041 -0.277 -0.074 -0.418 -0.108 c -0.092 -0.022 -0.182 -0.047 -0.275 -0.065 c -0.156 -0.031 -0.316 -0.052 -0.475 -0.073 c -0.08 -0.011 -0.159 -0.026 -0.24 -0.034 c -0.242 -0.024 -0.487 -0.037 -0.736 -0.037 s -0.493 0.014 -0.735 0.037 c -0.082 0.008 -0.162 0.023 -0.243 0.034 c -0.159 0.021 -0.317 0.042 -0.472 0.072 c -0.094 0.019 -0.186 0.044 -0.279 0.066 c -0.139 0.033 -0.277 0.066 -0.413 0.106 c -0.097 0.029 -0.191 0.063 -0.285 0.096 c -0.128 0.044 -0.255 0.089 -0.38 0.139 c -0.095 0.039 -0.188 0.081 -0.281 0.123 c -0.12 0.055 -0.239 0.111 -0.355 0.172 c -0.091 0.047 -0.18 0.097 -0.269 0.148 c -0.113 0.065 -0.225 0.133 -0.334 0.203 c -0.086 0.056 -0.171 0.112 -0.255 0.171 c -0.107 0.075 -0.21 0.154 -0.313 0.234 c -0.079 0.062 -0.159 0.125 -0.235 0.19 c -0.101 0.086 -0.198 0.176 -0.294 0.267 c -0.071 0.068 -0.144 0.134 -0.212 0.204 c -0.096 0.099 -0.187 0.202 -0.278 0.306 c -0.061 0.07 -0.124 0.138 -0.183 0.21 c -0.095 0.117 -0.183 0.239 -0.27 0.361 c -0.047 0.065 -0.097 0.128 -0.142 0.195 c -0.113 0.168 -0.217 0.342 -0.316 0.52 c -0.014 0.025 -0.031 0.049 -0.044 0.074 c -0.111 0.204 -0.212 0.415 -0.304 0.63 c -0.028 0.065 -0.049 0.132 -0.075 0.198 c -0.06 0.153 -0.12 0.305 -0.17 0.463 c -0.027 0.086 -0.048 0.174 -0.073 0.262 c -0.039 0.141 -0.079 0.282 -0.11 0.426 c -0.021 0.097 -0.036 0.195 -0.053 0.293 c -0.017 0.098 -0.04 0.195 -0.053 0.294 h -3.838 V 61.57 V 47.068 z M 52.389 71.269 H 40.334 c -0.013 -0.1 -0.036 -0.196 -0.053 -0.294 c -0.017 -0.098 -0.032 -0.196 -0.053 -0.293 c -0.031 -0.144 -0.07 -0.285 -0.11 -0.426 c -0.024 -0.087 -0.045 -0.176 -0.073 -0.262 c -0.051 -0.158 -0.11 -0.312 -0.171 -0.466 c -0.025 -0.064 -0.046 -0.13 -0.073 -0.194 c -0.092 -0.215 -0.193 -0.426 -0.304 -0.631 c -0.013 -0.025 -0.03 -0.048 -0.044 -0.073 c -0.099 -0.178 -0.204 -0.353 -0.317 -0.521 c -0.044 -0.066 -0.094 -0.128 -0.14 -0.192 c -0.089 -0.124 -0.177 -0.247 -0.273 -0.365 c -0.058 -0.071 -0.12 -0.138 -0.18 -0.207 c -0.092 -0.105 -0.184 -0.21 -0.281 -0.309 c -0.068 -0.069 -0.139 -0.135 -0.209 -0.201 c -0.097 -0.092 -0.196 -0.184 -0.298 -0.271 c -0.076 -0.064 -0.154 -0.126 -0.232 -0.187 c -0.104 -0.082 -0.209 -0.161 -0.317 -0.237 c -0.082 -0.058 -0.166 -0.114 -0.251 -0.168 c -0.111 -0.072 -0.223 -0.14 -0.338 -0.206 c -0.088 -0.05 -0.176 -0.099 -0.266 -0.146 c -0.118 -0.061 -0.238 -0.118 -0.359 -0.173 c -0.092 -0.042 -0.184 -0.084 -0.278 -0.122 c -0.126 -0.051 -0.254 -0.096 -0.383 -0.141 c -0.094 -0.032 -0.187 -0.066 -0.283 -0.095 c -0.136 -0.041 -0.276 -0.074 -0.415 -0.107 c -0.093 -0.022 -0.184 -0.047 -0.278 -0.065 c -0.156 -0.031 -0.315 -0.052 -0.474 -0.073 c -0.081 -0.011 -0.16 -0.026 -0.242 -0.034 c -0.242 -0.024 -0.487 -0.037 -0.736 -0.037 s -0.493 0.014 -0.736 0.037 c -0.081 0.008 -0.16 0.023 -0.24 0.034 c -0.16 0.021 -0.319 0.042 -0.475 0.073 c -0.093 0.018 -0.184 0.043 -0.275 0.065 c -0.14 0.033 -0.28 0.067 -0.418 0.108 c -0.095 0.028 -0.187 0.062 -0.28 0.094 c -0.13 0.045 -0.26 0.09 -0.386 0.142 c -0.093 0.038 -0.183 0.079 -0.274 0.12 c -0.122 0.056 -0.244 0.113 -0.362 0.175 c -0.089 0.046 -0.176 0.095 -0.263 0.145 c -0.116 0.066 -0.229 0.135 -0.341 0.208 c -0.084 0.054 -0.166 0.109 -0.247 0.166 c -0.11 0.077 -0.216 0.158 -0.321 0.24 c -0.077 0.06 -0.153 0.12 -0.228 0.184 c -0.104 0.088 -0.203 0.181 -0.302 0.275 c -0.069 0.065 -0.139 0.13 -0.205 0.198 c -0.099 0.101 -0.193 0.208 -0.286 0.315 c -0.058 0.067 -0.119 0.132 -0.175 0.201 c -0.098 0.121 -0.189 0.247 -0.28 0.374 c -0.044 0.062 -0.091 0.121 -0.134 0.184 c -0.115 0.172 -0.222 0.35 -0.323 0.532 c -0.012 0.021 -0.026 0.041 -0.038 0.063 c -0.111 0.205 -0.213 0.416 -0.305 0.632 c -0.026 0.061 -0.047 0.126 -0.071 0.188 c -0.062 0.155 -0.122 0.311 -0.173 0.472 c -0.027 0.085 -0.048 0.173 -0.072 0.26 c -0.04 0.141 -0.079 0.283 -0.11 0.427 c -0.021 0.097 -0.036 0.195 -0.053 0.293 c -0.017 0.098 -0.04 0.195 -0.053 0.294 h -3.337 c -0.013 -0.1 -0.036 -0.196 -0.053 -0.294 c -0.017 -0.098 -0.032 -0.196 -0.053 -0.293 c -0.031 -0.144 -0.07 -0.285 -0.11 -0.426 c -0.024 -0.087 -0.045 -0.176 -0.073 -0.262 c -0.051 -0.158 -0.11 -0.312 -0.171 -0.466 c -0.025 -0.064 -0.046 -0.13 -0.073 -0.194 c -0.092 -0.215 -0.193 -0.426 -0.304 -0.631 c -0.013 -0.025 -0.03 -0.048 -0.044 -0.073 c -0.099 -0.178 -0.204 -0.353 -0.317 -0.521 c -0.044 -0.066 -0.094 -0.128 -0.14 -0.192 c -0.089 -0.124 -0.177 -0.247 -0.273 -0.365 c -0.058 -0.071 -0.12 -0.138 -0.18 -0.207 c -0.092 -0.105 -0.184 -0.21 -0.281 -0.309 c -0.068 -0.069 -0.139 -0.135 -0.209 -0.201 c -0.097 -0.092 -0.196 -0.184 -0.298 -0.271 c -0.076 -0.064 -0.154 -0.126 -0.232 -0.187 c -0.104 -0.082 -0.209 -0.161 -0.317 -0.237 c -0.082 -0.058 -0.166 -0.114 -0.251 -0.168 c -0.111 -0.072 -0.223 -0.14 -0.338 -0.206 c -0.088 -0.05 -0.176 -0.099 -0.266 -0.146 c -0.118 -0.061 -0.238 -0.118 -0.359 -0.173 c -0.092 -0.042 -0.184 -0.084 -0.278 -0.122 c -0.126 -0.051 -0.254 -0.096 -0.383 -0.141 c -0.094 -0.032 -0.187 -0.066 -0.283 -0.095 c -0.136 -0.041 -0.276 -0.074 -0.415 -0.107 c -0.093 -0.022 -0.184 -0.047 -0.278 -0.065 c -0.156 -0.031 -0.315 -0.052 -0.474 -0.073 c -0.081 -0.011 -0.16 -0.026 -0.242 -0.034 c -0.242 -0.024 -0.487 -0.037 -0.736 -0.037 s -0.493 0.014 -0.736 0.037 c -0.082 0.008 -0.161 0.023 -0.242 0.034 c -0.159 0.021 -0.318 0.042 -0.474 0.073 c -0.094 0.018 -0.185 0.044 -0.278 0.065 c -0.14 0.033 -0.279 0.066 -0.415 0.107 c -0.096 0.029 -0.189 0.062 -0.283 0.095 c -0.129 0.044 -0.258 0.089 -0.383 0.141 c -0.094 0.038 -0.186 0.08 -0.278 0.122 c -0.121 0.055 -0.241 0.112 -0.359 0.173 c -0.09 0.047 -0.178 0.096 -0.266 0.146 c -0.115 0.066 -0.227 0.134 -0.338 0.206 c -0.085 0.055 -0.168 0.11 -0.251 0.168 c -0.108 0.076 -0.213 0.156 -0.317 0.237 c -0.078 0.061 -0.156 0.123 -0.232 0.187 c -0.102 0.087 -0.2 0.178 -0.298 0.271 c -0.07 0.067 -0.141 0.132 -0.209 0.201 c -0.097 0.1 -0.189 0.204 -0.281 0.309 c -0.06 0.069 -0.122 0.136 -0.18 0.207 c -0.096 0.118 -0.185 0.241 -0.273 0.365 c -0.046 0.064 -0.096 0.126 -0.14 0.192 c -0.113 0.169 -0.218 0.343 -0.317 0.521 c -0.014 0.025 -0.03 0.048 -0.044 0.073 c -0.111 0.205 -0.212 0.415 -0.304 0.631 c -0.027 0.063 -0.048 0.13 -0.073 0.194 c -0.061 0.154 -0.12 0.308 -0.171 0.466 c -0.027 0.086 -0.048 0.174 -0.073 0.262 c -0.039 0.141 -0.079 0.282 -0.11 0.426 c -0.021 0.097 -0.036 0.195 -0.053 0.293 c -0.017 0.098 -0.04 0.195 -0.053 0.294 H 3.888 C 2.847 71.269 2 70.422 2 69.381 V 62.57 h 4.181 H 36.18 h 16.208 V 71.269 z M 35.18 60.57 H 7.181 v -4.188 h 5.763 h 15 h 7.237 V 60.57 z M 13.944 54.382 V 40.089 h 5.31 l 7.078 14.293 H 13.944 z M 25.665 48.528 l -3.229 -6.521 l 32.148 -16.286 l 3.288 6.491 L 25.665 48.528 z M 58.878 29.771 l -1.73 -3.415 l 17.589 -8.911 l 0.865 1.708 l 0.865 1.708 L 58.878 29.771 z M 79.029 21.494 l -0.327 -0.645 c 0 0 0 0 0 -0.001 l -2.634 -5.199 c 0 0 0 0 0 0 l -0.327 -0.645 l 4.687 -2.374 c 1.787 -0.905 3.981 -0.189 4.89 1.602 c 0.438 0.867 0.514 1.853 0.211 2.776 s -0.946 1.674 -1.813 2.113 L 79.029 21.494 z M 82.351 38.305 V 35.48 H 88 v 2.825 c 0 1.557 -1.267 2.824 -2.824 2.824 S 82.351 39.862 82.351 38.305 z" style="stroke: none; stroke-width: 1; stroke-dasharray: none; stroke-linecap: butt; stroke-linejoin: miter; stroke-miterlimit: 10; fill: rgb(0,0,0); fill-rule: nonzero; opacity: 1;" transform=" matrix(1 0 0 1 0 0) " stroke-linecap="round"/>
</g>
</svg>