<svg xmlns="http://www.w3.org/2000/svg" xmlns:xlink="http://www.w3.org/1999/xlink" version="1.1" width="256" height="256" viewBox="0 0 256 256" xml:space="preserve">
<g style="stroke: none; stroke-width: 0; stroke-dasharray: none; stroke-linecap: butt; stroke-linejoin: miter; stroke-miterlimit: 10; fill: none; fill-rule: nonzero; opacity: 1;" transform="translate(1.4065934065934016 1.4065934065934016) scale(2.81 2.81)">
	<path d="M 75.448 46.167 l 8.01 -8.01 c 4.222 -4.222 6.548 -9.836 6.548 -15.807 S 87.68 10.764 83.458 6.542 c -8.716 -8.716 -22.899 -8.716 -31.615 0 l -22.65 22.65 l -22.65 22.65 c -8.716 8.716 -8.716 22.899 0 31.615 c 4.222 4.222 9.836 6.548 15.808 6.548 s 11.585 -2.325 15.807 -6.548 l 8.01 -8.01 c 3.272 8.504 11.523 14.558 21.166 14.558 c 12.501 0 22.673 -10.171 22.673 -22.673 C 90.005 57.69 83.952 49.439 75.448 46.167 z M 53.257 7.957 c 7.936 -7.936 20.848 -7.936 28.787 0 c 3.844 3.845 5.962 8.956 5.962 14.393 c 0 5.437 -2.117 10.548 -5.962 14.393 l -8.669 8.669 c -0.018 0.018 -0.024 0.041 -0.04 0.06 c -1.913 -0.526 -3.924 -0.812 -6.002 -0.812 c -5.892 0 -11.265 2.26 -15.301 5.958 L 31.314 29.9 L 53.257 7.957 z M 36.743 82.043 c -3.845 3.844 -8.956 5.962 -14.393 5.962 c -5.437 0 -10.549 -2.117 -14.393 -5.962 c -7.936 -7.936 -7.936 -20.85 0 -28.787 L 29.9 31.314 l 20.718 20.718 c -3.697 4.036 -5.958 9.409 -5.958 15.301 c 0 2.072 0.285 4.077 0.808 5.986 L 36.743 82.043 z M 46.66 67.333 c 0 -11.061 8.739 -20.095 19.672 -20.622 v 41.243 C 55.4 87.427 46.66 78.394 46.66 67.333 z M 68.333 87.954 V 46.711 c 10.933 0.527 19.672 9.56 19.672 20.622 S 79.266 87.427 68.333 87.954 z" style="stroke: none; stroke-width: 1; stroke-dasharray: none; stroke-linecap: butt; stroke-linejoin: miter; stroke-miterlimit: 10; fill: rgb(0,0,0); fill-rule: nonzero; opacity: 1;" transform=" matrix(1 0 0 1 0 0) " stroke-linecap="round"/>
	<path d="M 75.122 13.584 c -0.256 0 -0.512 -0.098 -0.707 -0.293 c -1.91 -1.91 -4.449 -2.962 -7.15 -2.962 s -5.24 1.052 -7.15 2.962 c -0.391 0.391 -1.023 0.391 -1.414 0 s -0.391 -1.023 0 -1.414 c 2.288 -2.288 5.329 -3.548 8.564 -3.548 s 6.277 1.26 8.564 3.548 c 0.391 0.391 0.391 1.024 0 1.414 C 75.634 13.487 75.378 13.584 75.122 13.584 z" style="stroke: none; stroke-width: 1; stroke-dasharray: none; stroke-linecap: butt; stroke-linejoin: miter; stroke-miterlimit: 10; fill: rgb(0,0,0); fill-rule: nonzero; opacity: 1;" transform=" matrix(1 0 0 1 0 0) " stroke-linecap="round"/>
</g>
</svg>